<?xml version="1.0" standalone="no"?>
<!DOCTYPE svg PUBLIC "-//W3C//DTD SVG 20010904//EN"
 "http://www.w3.org/TR/2001/REC-SVG-20010904/DTD/svg10.dtd">
<svg version="1.0" xmlns="http://www.w3.org/2000/svg"
 width="585.000000pt" height="585.000000pt" viewBox="0 0 585.000000 585.000000"
 preserveAspectRatio="xMidYMid meet">
<metadata>
Created by potrace 1.11, written by Peter Selinger 2001-2013
</metadata>
<g transform="translate(0.000000,585.000000) scale(0.100000,-0.100000)"
fill="#000000" stroke="none">
<path d="M1648 5575 c-2 -2 -39 -6 -83 -10 -73 -5 -175 -18 -250 -31 -120 -20
-164 -29 -270 -56 -249 -63 -520 -160 -520 -185 0 -6 25 -37 55 -70 80 -86
212 -232 253 -278 35 -39 36 -40 69 -27 18 7 40 15 48 17 8 3 58 20 111 39 53
18 107 36 120 39 60 14 72 16 87 21 9 3 28 7 42 10 14 3 36 7 50 10 48 10 75
15 115 21 23 3 52 7 65 10 50 10 208 19 320 18 162 0 295 -13 410 -40 36 -8
76 -17 90 -19 62 -11 243 -74 295 -102 17 -9 31 -15 33 -14 1 1 30 -11 65 -27
162 -76 289 -124 462 -174 115 -33 315 -72 425 -83 123 -12 164 -15 270 -19
63 -2 118 -4 123 -5 4 0 7 -512 7 -1137 l0 -1138 -24 -51 c-35 -74 -117 -137
-216 -164 -239 -66 -499 66 -500 255 0 48 -43 128 -91 169 -62 53 -133 83
-224 92 -106 12 -187 -2 -275 -46 -133 -66 -179 -176 -144 -343 58 -280 319
-522 674 -627 156 -46 245 -60 410 -63 134 -3 232 9 405 47 31 7 117 37 160
56 91 39 119 54 175 89 197 124 322 281 376 471 18 62 19 129 19 1276 l0 1211
70 18 c176 45 470 153 470 173 0 9 -42 57 -268 304 l-78 85 -97 -38 c-53 -21
-108 -40 -122 -43 -14 -3 -56 -15 -95 -26 -84 -25 -243 -59 -305 -66 -25 -2
-54 -6 -65 -9 -37 -8 -198 -18 -285 -18 -87 0 -291 12 -300 18 -3 2 -29 6 -59
10 -72 9 -258 57 -351 91 -41 14 -131 53 -200 84 -123 57 -298 128 -333 135
-9 2 -21 6 -25 9 -25 15 -329 86 -432 101 -66 9 -135 18 -175 22 -46 5 -483
12 -487 8z"/>
<path d="M2000 4274 c-152 -20 -333 -68 -367 -96 -7 -6 -13 -7 -13 -4 0 10
-88 -38 -186 -100 -96 -61 -195 -155 -251 -239 -52 -77 -66 -105 -94 -190
l-23 -70 -2 -1218 c-1 -670 -3 -1220 -6 -1222 -3 -3 -133 -41 -208 -60 -15 -4
-180 -63 -235 -85 -53 -20 -95 -42 -95 -49 0 -3 22 -29 48 -56 26 -28 105
-114 175 -192 l128 -140 57 22 c31 12 66 26 77 30 11 4 25 9 30 10 6 2 46 14
90 28 72 23 133 39 160 43 6 0 17 4 25 7 8 3 44 10 80 16 36 6 76 13 90 16
148 31 526 36 661 10 13 -3 42 -7 63 -10 142 -18 348 -84 542 -173 198 -91
383 -159 504 -187 30 -6 124 -28 155 -35 22 -5 58 -12 80 -15 22 -3 51 -7 65
-10 143 -28 586 -41 740 -22 30 4 78 10 105 12 28 3 61 8 75 10 14 2 45 7 70
10 25 4 65 11 90 17 25 5 56 12 70 14 22 5 46 10 120 28 127 31 300 87 425
137 17 7 32 13 35 14 25 6 49 28 43 39 -7 12 -80 94 -224 251 -25 27 -63 69
-84 92 -36 40 -40 41 -64 29 -41 -21 -258 -93 -346 -115 -209 -52 -400 -75
-610 -74 -117 0 -265 9 -295 18 -8 2 -35 7 -60 10 -131 18 -340 83 -509 159
-198 90 -222 100 -326 136 -163 57 -377 110 -505 125 -19 2 -57 6 -85 10 -104
13 -133 16 -255 20 -69 2 -131 4 -137 5 -18 0 -19 2243 -1 2302 23 77 100 144
212 185 72 27 236 24 306 -4 8 -4 17 -7 20 -7 3 -1 26 -13 51 -28 81 -48 139
-131 139 -201 0 -50 21 -105 57 -146 36 -43 111 -93 158 -106 17 -4 37 -10 45
-13 8 -2 54 -6 102 -8 129 -5 236 31 309 105 60 60 74 95 72 186 -4 257 -203
516 -505 660 -99 47 -262 98 -349 109 -19 3 -56 8 -84 12 -83 11 -264 11 -355
-2z"/>
</g>
</svg>
